<mxfile host="Electron" agent="Mozilla/5.0 (Windows NT 10.0; Win64; x64) AppleWebKit/537.36 (KHTML, like Gecko) draw.io/26.0.16 Chrome/132.0.6834.196 Electron/34.2.0 Safari/537.36" version="26.0.16">
  <diagram id="C5RBs43oDa-KdzZeNtuy" name="Page-1">
    <mxGraphModel dx="1607" dy="496" grid="1" gridSize="10" guides="1" tooltips="1" connect="1" arrows="1" fold="1" page="1" pageScale="1" pageWidth="827" pageHeight="1169" math="0" shadow="0">
      <root>
        <mxCell id="WIyWlLk6GJQsqaUBKTNV-0" />
        <mxCell id="WIyWlLk6GJQsqaUBKTNV-1" parent="WIyWlLk6GJQsqaUBKTNV-0" />
        <mxCell id="iR-G3rLpoy6mbtt5U2tv-4" value="" style="edgeStyle=orthogonalEdgeStyle;rounded=0;orthogonalLoop=1;jettySize=auto;html=1;" edge="1" parent="WIyWlLk6GJQsqaUBKTNV-1" source="WIyWlLk6GJQsqaUBKTNV-6" target="iR-G3rLpoy6mbtt5U2tv-3">
          <mxGeometry relative="1" as="geometry" />
        </mxCell>
        <mxCell id="iR-G3rLpoy6mbtt5U2tv-39" value="Yes" style="edgeLabel;html=1;align=center;verticalAlign=middle;resizable=0;points=[];" vertex="1" connectable="0" parent="iR-G3rLpoy6mbtt5U2tv-4">
          <mxGeometry x="-0.5619" y="7" relative="1" as="geometry">
            <mxPoint as="offset" />
          </mxGeometry>
        </mxCell>
        <mxCell id="iR-G3rLpoy6mbtt5U2tv-7" value="" style="edgeStyle=orthogonalEdgeStyle;rounded=0;orthogonalLoop=1;jettySize=auto;html=1;" edge="1" parent="WIyWlLk6GJQsqaUBKTNV-1" source="iR-G3rLpoy6mbtt5U2tv-0" target="WIyWlLk6GJQsqaUBKTNV-6">
          <mxGeometry relative="1" as="geometry" />
        </mxCell>
        <mxCell id="iR-G3rLpoy6mbtt5U2tv-0" value="Start" style="rounded=1;whiteSpace=wrap;html=1;fillColor=#d5e8d4;strokeColor=#82b366;gradientColor=#97d077;" vertex="1" parent="WIyWlLk6GJQsqaUBKTNV-1">
          <mxGeometry x="80" y="10" width="220" height="70" as="geometry" />
        </mxCell>
        <mxCell id="iR-G3rLpoy6mbtt5U2tv-13" value="" style="edgeStyle=orthogonalEdgeStyle;rounded=0;orthogonalLoop=1;jettySize=auto;html=1;" edge="1" parent="WIyWlLk6GJQsqaUBKTNV-1" source="iR-G3rLpoy6mbtt5U2tv-3" target="iR-G3rLpoy6mbtt5U2tv-12">
          <mxGeometry relative="1" as="geometry" />
        </mxCell>
        <mxCell id="iR-G3rLpoy6mbtt5U2tv-37" value="Yes" style="edgeLabel;html=1;align=center;verticalAlign=middle;resizable=0;points=[];" vertex="1" connectable="0" parent="iR-G3rLpoy6mbtt5U2tv-13">
          <mxGeometry x="-0.4863" y="9" relative="1" as="geometry">
            <mxPoint as="offset" />
          </mxGeometry>
        </mxCell>
        <mxCell id="iR-G3rLpoy6mbtt5U2tv-30" value="" style="edgeStyle=orthogonalEdgeStyle;rounded=0;orthogonalLoop=1;jettySize=auto;html=1;" edge="1" parent="WIyWlLk6GJQsqaUBKTNV-1" source="iR-G3rLpoy6mbtt5U2tv-3" target="iR-G3rLpoy6mbtt5U2tv-29">
          <mxGeometry relative="1" as="geometry" />
        </mxCell>
        <mxCell id="iR-G3rLpoy6mbtt5U2tv-36" value="No" style="edgeLabel;html=1;align=center;verticalAlign=middle;resizable=0;points=[];" vertex="1" connectable="0" parent="iR-G3rLpoy6mbtt5U2tv-30">
          <mxGeometry x="-0.3381" y="-7" relative="1" as="geometry">
            <mxPoint as="offset" />
          </mxGeometry>
        </mxCell>
        <mxCell id="iR-G3rLpoy6mbtt5U2tv-3" value="Is it absolutely&amp;nbsp;&lt;div&gt;divisible by 100?&lt;/div&gt;" style="rhombus;whiteSpace=wrap;html=1;shadow=0;fontFamily=Helvetica;fontSize=12;align=center;strokeWidth=1;spacing=6;spacingTop=-4;fillColor=#fff2cc;strokeColor=#d6b656;gradientColor=#ffd966;" vertex="1" parent="WIyWlLk6GJQsqaUBKTNV-1">
          <mxGeometry x="274" y="210" width="140" height="80" as="geometry" />
        </mxCell>
        <mxCell id="iR-G3rLpoy6mbtt5U2tv-32" value="" style="edgeStyle=orthogonalEdgeStyle;rounded=0;orthogonalLoop=1;jettySize=auto;html=1;" edge="1" parent="WIyWlLk6GJQsqaUBKTNV-1" source="WIyWlLk6GJQsqaUBKTNV-6" target="iR-G3rLpoy6mbtt5U2tv-31">
          <mxGeometry relative="1" as="geometry" />
        </mxCell>
        <mxCell id="iR-G3rLpoy6mbtt5U2tv-40" value="No" style="edgeLabel;html=1;align=center;verticalAlign=middle;resizable=0;points=[];fontColor=#FF782E;whiteSpace=wrap;" vertex="1" connectable="0" parent="iR-G3rLpoy6mbtt5U2tv-32">
          <mxGeometry x="-0.4756" y="-5" relative="1" as="geometry">
            <mxPoint x="7" as="offset" />
          </mxGeometry>
        </mxCell>
        <mxCell id="WIyWlLk6GJQsqaUBKTNV-6" value="Is it absolutely&amp;nbsp;&lt;div&gt;divisible by 4?&lt;/div&gt;" style="rhombus;whiteSpace=wrap;html=1;shadow=0;fontFamily=Helvetica;fontSize=12;align=center;strokeWidth=1;spacing=6;spacingTop=-4;fillColor=#fff2cc;strokeColor=#d6b656;gradientColor=#ffd966;" parent="WIyWlLk6GJQsqaUBKTNV-1" vertex="1">
          <mxGeometry x="120" y="120" width="140" height="80" as="geometry" />
        </mxCell>
        <mxCell id="iR-G3rLpoy6mbtt5U2tv-17" value="" style="edgeStyle=orthogonalEdgeStyle;rounded=0;orthogonalLoop=1;jettySize=auto;html=1;" edge="1" parent="WIyWlLk6GJQsqaUBKTNV-1" source="iR-G3rLpoy6mbtt5U2tv-12" target="iR-G3rLpoy6mbtt5U2tv-16">
          <mxGeometry relative="1" as="geometry" />
        </mxCell>
        <mxCell id="iR-G3rLpoy6mbtt5U2tv-28" value="yes" style="edgeLabel;html=1;align=center;verticalAlign=middle;resizable=0;points=[];" vertex="1" connectable="0" parent="iR-G3rLpoy6mbtt5U2tv-17">
          <mxGeometry x="-0.6222" y="9" relative="1" as="geometry">
            <mxPoint x="5" as="offset" />
          </mxGeometry>
        </mxCell>
        <mxCell id="iR-G3rLpoy6mbtt5U2tv-35" value="Yes" style="edgeLabel;html=1;align=center;verticalAlign=middle;resizable=0;points=[];" vertex="1" connectable="0" parent="iR-G3rLpoy6mbtt5U2tv-17">
          <mxGeometry x="-0.5556" y="8" relative="1" as="geometry">
            <mxPoint as="offset" />
          </mxGeometry>
        </mxCell>
        <mxCell id="iR-G3rLpoy6mbtt5U2tv-22" value="" style="edgeStyle=orthogonalEdgeStyle;rounded=0;orthogonalLoop=1;jettySize=auto;html=1;" edge="1" parent="WIyWlLk6GJQsqaUBKTNV-1" source="iR-G3rLpoy6mbtt5U2tv-12" target="iR-G3rLpoy6mbtt5U2tv-21">
          <mxGeometry relative="1" as="geometry" />
        </mxCell>
        <mxCell id="iR-G3rLpoy6mbtt5U2tv-34" value="No" style="edgeLabel;html=1;align=center;verticalAlign=middle;resizable=0;points=[];" vertex="1" connectable="0" parent="iR-G3rLpoy6mbtt5U2tv-22">
          <mxGeometry x="-0.3111" y="-8" relative="1" as="geometry">
            <mxPoint x="9" as="offset" />
          </mxGeometry>
        </mxCell>
        <mxCell id="iR-G3rLpoy6mbtt5U2tv-12" value="Is it absolutely&amp;nbsp;&lt;div&gt;divisible by 400?&lt;/div&gt;" style="rhombus;whiteSpace=wrap;html=1;shadow=0;fontFamily=Helvetica;fontSize=12;align=center;strokeWidth=1;spacing=6;spacingTop=-4;fillColor=#fff2cc;strokeColor=#d6b656;gradientColor=#ffd966;" vertex="1" parent="WIyWlLk6GJQsqaUBKTNV-1">
          <mxGeometry x="430" y="330" width="160" height="70" as="geometry" />
        </mxCell>
        <mxCell id="iR-G3rLpoy6mbtt5U2tv-16" value="Lleap year" style="rounded=1;whiteSpace=wrap;html=1;shadow=0;strokeWidth=1;spacing=6;spacingTop=-4;fillColor=#dae8fc;strokeColor=#6c8ebf;gradientColor=#7ea6e0;" vertex="1" parent="WIyWlLk6GJQsqaUBKTNV-1">
          <mxGeometry x="630" y="410" width="120" height="60" as="geometry" />
        </mxCell>
        <mxCell id="iR-G3rLpoy6mbtt5U2tv-21" value="&lt;span style=&quot;color: rgb(0, 0, 0);&quot;&gt;Not leap year&lt;/span&gt;" style="rounded=1;whiteSpace=wrap;html=1;shadow=0;strokeWidth=1;spacing=6;spacingTop=-4;fillColor=#f8cecc;strokeColor=#b85450;gradientColor=#ea6b66;" vertex="1" parent="WIyWlLk6GJQsqaUBKTNV-1">
          <mxGeometry x="250" y="410" width="120" height="60" as="geometry" />
        </mxCell>
        <mxCell id="iR-G3rLpoy6mbtt5U2tv-29" value="Leap year" style="rounded=1;whiteSpace=wrap;html=1;shadow=0;strokeWidth=1;spacing=6;spacingTop=-4;fillColor=#dae8fc;strokeColor=#6c8ebf;gradientColor=#7ea6e0;" vertex="1" parent="WIyWlLk6GJQsqaUBKTNV-1">
          <mxGeometry x="130" y="320" width="120" height="60" as="geometry" />
        </mxCell>
        <mxCell id="iR-G3rLpoy6mbtt5U2tv-31" value="Not leap year" style="rounded=1;whiteSpace=wrap;html=1;shadow=0;strokeWidth=1;spacing=6;spacingTop=-4;fillColor=#f8cecc;strokeColor=#b85450;gradientColor=#ea6b66;" vertex="1" parent="WIyWlLk6GJQsqaUBKTNV-1">
          <mxGeometry x="-10" y="240" width="120" height="60" as="geometry" />
        </mxCell>
      </root>
    </mxGraphModel>
  </diagram>
</mxfile>
